<?xml version="1.0" encoding="utf-8"?>
<!-- Generator: Adobe Illustrator 18.1.1, SVG Export Plug-In . SVG Version: 6.00 Build 0)  -->
<svg version="1.1" id="Layer_1" xmlns="http://www.w3.org/2000/svg" xmlns:xlink="http://www.w3.org/1999/xlink" x="0px" y="0px"
	 viewBox="0 0 428.1 402.9" enable-background="new 0 0 428.1 402.9" xml:space="preserve">
<path fill="#631F3A" d="M67.1,32.7c-5.3,15.2-11.4,30.1-15.6,45.6c-16.1,58.2-7.1,112.2,29.1,160.8c13.1,17.6,31,30,50,40.8
	c22.3,12.7,46.2,19.3,72.1,17.2c22-1.8,43.1-6.4,61.1-20c15-11.3,22-26.6,22.4-45.2c0.1-3,0.1-6,0-9c-0.5-9.1-3.7-16.6-11.3-22.2
	c-8-6-17-9.1-26.6-10.5c-7.2-1-13.8,0.7-18.7,7c-4.3,5.5-9.8,9.5-17.2,9.7c-5,0.1-7.5-2.5-6.8-7.4c0.3-2.4,1.3-4.8,2.4-7
	c5.1-10.8,10.4-21.5,15.6-32.3c1.7-3.6,3.4-7.2,5-10.9c2.7-6.3,2.6-12.2-1.9-17.7c-4.1-5-8.2-10.1-12-15.3
	c-2.6-3.5-5.5-8.3-2.7-11.8c1.8-2.2,7.5-2.6,11-1.8c6.2,1.4,10.6-0.2,14.4-4.9c0.7-0.9,1.8-1.5,2.5-2.4
	c9.2-10.5,20.6-13.8,34.3-12.4c10.1,1,10.6-0.3,7.5-9.9c-3.4-10.6-2.8-12.3,6.8-18.2c5.5-3.4,11.4-6.3,16.6-10
	c3.6-2.6,6.5-6.4,10-10c-2-1.5-3-2.5-4.1-3c-3.5-1.7-6.9-2.4-7.6-7.7c-0.4-2.7-5.1-4.8-7.7-7.4c-3-3-3.7-6.6-1.9-10.6
	c1.7-3.7,4.2-6.5,8.8-6c3.9,0.4,8,0.6,11.8,1.7c23.6,6.5,43,19.4,59,38.1c38.3,44.9,57.1,96.8,54.7,155.6
	c-3,72.4-34.9,129.8-94.4,171.1c-29.3,20.3-62.2,32.3-97.9,35.3c-72.1,6.2-133.1-17.4-181.7-70.9c-31.2-34.3-49-75.4-53-121.7
	C-4.8,142,16.3,84.2,63.6,35.9C64.8,34.7,66,33.7,67.1,32.7z"/>
</svg>
